<svg width="28" height="28" viewBox="0 0 28 28" fill="none" xmlns="http://www.w3.org/2000/svg">
<path fill-rule="evenodd" clip-rule="evenodd" d="M24.3788 2.33301H3.6215C2.90983 2.33301 2.3335 2.90934 2.3335 3.62101V24.3783C2.3335 25.09 2.90983 25.6663 3.6215 25.6663H14.7958V16.6305H11.7555V13.1095H14.7958V10.5113C14.7958 7.49668 16.6368 5.85634 19.326 5.85634C20.614 5.85634 21.72 5.95201 22.0432 5.99517V9.14517H20.1788C18.7158 9.14517 18.4335 9.84051 18.4335 10.8602V13.1083H21.9207L21.4657 16.6293H18.4323V25.6663H24.3788C25.0905 25.6663 25.6668 25.09 25.6668 24.3783V3.62101C25.6668 2.90934 25.0905 2.33301 24.3788 2.33301Z" fill="white"/>
</svg>
