<svg width="28" height="28" viewBox="0 0 28 28" fill="none" xmlns="http://www.w3.org/2000/svg">
<path fill-rule="evenodd" clip-rule="evenodd" d="M14.0002 2.33301C10.8315 2.33301 10.4348 2.34701 9.19 2.40301C7.94866 2.46017 7.1005 2.65734 6.3585 2.94551C5.57973 3.23816 4.87421 3.69723 4.29116 4.29067C3.69775 4.87374 3.23868 5.57926 2.946 6.35801C2.65783 7.10001 2.46066 7.94817 2.4035 9.18951C2.34633 10.4343 2.3335 10.831 2.3335 13.9997C2.3335 17.1683 2.34633 17.565 2.4035 18.8098C2.46066 20.0512 2.65783 20.8993 2.946 21.6413C3.23872 22.4201 3.69777 23.1256 4.29116 23.7087C4.87426 24.3021 5.57976 24.7611 6.3585 25.0538C7.1005 25.342 7.94866 25.5392 9.19 25.5963C10.4348 25.6523 10.8315 25.6663 14.0002 25.6663C17.1688 25.6663 17.5655 25.6523 18.8103 25.5963C20.0517 25.5392 20.8998 25.342 21.6418 25.0538C22.4206 24.7612 23.1261 24.3021 23.7092 23.7087C24.3026 23.1256 24.7616 22.4201 25.0543 21.6413C25.3425 20.8993 25.5397 20.0512 25.5968 18.8098C25.6528 17.565 25.6668 17.1683 25.6668 13.9997C25.6668 10.831 25.6528 10.4343 25.5968 9.18951C25.5397 7.94817 25.3425 7.10001 25.0543 6.35801C24.7616 5.57926 24.3026 4.87374 23.7092 4.29067C23.1261 3.69723 22.4206 3.23816 21.6418 2.94551C20.8998 2.65734 20.0517 2.46017 18.8103 2.40301C17.5655 2.34701 17.1688 2.33301 14.0002 2.33301ZM14.0002 4.43534C17.1152 4.43534 17.4838 4.44701 18.7135 4.50301C19.8522 4.55551 20.4693 4.74451 20.8812 4.90434C21.4248 5.11667 21.8145 5.36984 22.2228 5.77701C22.6312 6.18534 22.8832 6.57501 23.0955 7.11868C23.2542 7.53051 23.4455 8.14768 23.4968 9.28517C23.5528 10.516 23.5645 10.8835 23.5645 13.9997C23.5645 17.1147 23.5528 17.4833 23.4968 18.713C23.4443 19.8517 23.2542 20.4688 23.0955 20.8807C22.9085 21.3875 22.6103 21.8459 22.2228 22.2223C21.8145 22.6307 21.4248 22.8827 20.8812 23.095C20.4693 23.2537 19.8522 23.445 18.7147 23.4963C17.485 23.5523 17.1163 23.564 14.0002 23.564C10.8852 23.564 10.5153 23.5523 9.28683 23.4963C8.14816 23.4438 7.531 23.2537 7.11916 23.095C6.61235 22.908 6.15388 22.6098 5.7775 22.2223C5.39 21.846 5.0918 21.3875 4.90483 20.8807C4.745 20.4688 4.55483 19.8517 4.5035 18.7142C4.4475 17.4833 4.43583 17.1158 4.43583 13.9997C4.43583 10.8847 4.4475 10.516 4.5035 9.28634C4.556 8.14768 4.745 7.53051 4.90483 7.11868C5.11716 6.57501 5.37033 6.18534 5.7775 5.77701C6.18583 5.36867 6.5755 5.11667 7.11916 4.90434C7.531 4.74451 8.14816 4.55434 9.28566 4.50301C10.5165 4.44701 10.884 4.43534 14.0002 4.43534ZM14.0002 17.8882C12.9689 17.8882 11.9798 17.4785 11.2506 16.7493C10.5213 16.02 10.1117 15.031 10.1117 13.9997C10.1117 12.9684 10.5213 11.9793 11.2506 11.2501C11.9798 10.5209 12.9689 10.1112 14.0002 10.1112C15.0315 10.1112 16.0205 10.5209 16.7497 11.2501C17.479 11.9793 17.8887 12.9684 17.8887 13.9997C17.8887 15.031 17.479 16.02 16.7497 16.7493C16.0205 17.4785 15.0315 17.8882 14.0002 17.8882ZM14.0002 8.00884C13.2134 8.00884 12.4344 8.1638 11.7076 8.46487C10.9807 8.76593 10.3203 9.20722 9.764 9.76352C9.2077 10.3198 8.76642 10.9802 8.46535 11.7071C8.16429 12.4339 8.00933 13.2129 8.00933 13.9997C8.00933 14.7864 8.16429 15.5654 8.46535 16.2923C8.76642 17.0191 9.2077 17.6795 9.764 18.2358C10.3203 18.7921 10.9807 19.2334 11.7076 19.5345C12.4344 19.8356 13.2134 19.9905 14.0002 19.9905C15.589 19.9905 17.1128 19.3593 18.2363 18.2358C19.3598 17.1123 19.991 15.5885 19.991 13.9997C19.991 12.4108 19.3598 10.887 18.2363 9.76352C17.1128 8.64002 15.589 8.00884 14.0002 8.00884ZM21.6278 7.77201C21.6278 7.95586 21.5916 8.13791 21.5213 8.30777C21.4509 8.47762 21.3478 8.63196 21.2178 8.76196C21.0878 8.89196 20.9334 8.99508 20.7636 9.06544C20.5937 9.1358 20.4117 9.17201 20.2278 9.17201C20.044 9.17201 19.8619 9.1358 19.6921 9.06544C19.5222 8.99508 19.3679 8.89196 19.2379 8.76196C19.1079 8.63196 19.0048 8.47762 18.9344 8.30777C18.864 8.13791 18.8278 7.95586 18.8278 7.77201C18.8278 7.40071 18.9753 7.04461 19.2379 6.78206C19.5004 6.51951 19.8565 6.37201 20.2278 6.37201C20.5991 6.37201 20.9552 6.51951 21.2178 6.78206C21.4803 7.04461 21.6278 7.40071 21.6278 7.77201Z" fill="white"/>
</svg>
