<svg width="28" height="28" viewBox="0 0 28 28" fill="none" xmlns="http://www.w3.org/2000/svg">
<g clip-path="url(#clip0_19_528)">
<path fill-rule="evenodd" clip-rule="evenodd" d="M14.0002 4.66699C14.9977 4.66699 16.0208 4.69266 17.0125 4.73466L18.1838 4.79066L19.305 4.85716L20.355 4.92833L21.314 5.00299C22.3547 5.08265 23.334 5.52676 24.0796 6.2572C24.8252 6.98765 25.2893 7.95762 25.3903 8.99649L25.437 9.49232L25.5245 10.554C25.6062 11.6542 25.6668 12.8535 25.6668 14.0003C25.6668 15.1472 25.6062 16.3465 25.5245 17.4467L25.437 18.5083C25.4218 18.6787 25.4067 18.8432 25.3903 19.0042C25.2893 20.0432 24.825 21.0133 24.0792 21.7438C23.3333 22.4743 22.3538 22.9183 21.3128 22.9977L20.3562 23.0712L19.3062 23.1435L18.1838 23.21L17.0125 23.266C16.009 23.3096 15.0046 23.3322 14.0002 23.3337C12.9957 23.3322 11.9914 23.3096 10.9878 23.266L9.8165 23.21L8.69533 23.1435L7.64533 23.0712L6.68633 22.9977C5.64561 22.918 4.66631 22.4739 3.92071 21.7434C3.17512 21.013 2.711 20.043 2.61 19.0042L2.56333 18.5083L2.47583 17.4467C2.38662 16.3 2.33915 15.1504 2.3335 14.0003C2.3335 12.8535 2.39416 11.6542 2.47583 10.554L2.56333 9.49232C2.5785 9.32199 2.59366 9.15749 2.61 8.99649C2.71096 7.95781 3.17492 6.98798 3.92027 6.25756C4.66562 5.52714 5.64465 5.08291 6.68516 5.00299L7.643 4.92833L8.693 4.85716L9.81533 4.79066L10.9867 4.73466C11.9906 4.69106 12.9953 4.6685 14.0002 4.66699ZM11.6668 11.1712V16.8295C11.6668 17.3685 12.2502 17.7045 12.7168 17.4362L17.6168 14.607C17.7235 14.5456 17.812 14.4572 17.8736 14.3507C17.9352 14.2442 17.9676 14.1234 17.9676 14.0003C17.9676 13.8773 17.9352 13.7564 17.8736 13.6499C17.812 13.5434 17.7235 13.455 17.6168 13.3937L12.7168 10.5657C12.6104 10.5042 12.4896 10.4719 12.3667 10.4719C12.2438 10.4719 12.1231 10.5043 12.0166 10.5658C11.9102 10.6273 11.8218 10.7157 11.7604 10.8222C11.699 10.9286 11.6668 11.0494 11.6668 11.1723V11.1712Z" fill="white"/>
</g>
<defs>
<clipPath id="clip0_19_528">
<rect width="28" height="28" fill="white"/>
</clipPath>
</defs>
</svg>
